<mxfile host="app.diagrams.net" modified="2023-04-17T18:13:26.519Z" agent="Mozilla/5.0 (Windows NT 10.0; Win64; x64) AppleWebKit/537.36 (KHTML, like Gecko) Chrome/112.0.0.0 Safari/537.36" etag="0-gB5tpfmt4taCvNpjgp" version="21.1.1" type="device">
  <diagram name="Page-1" id="FOvincP4crpSBKMhUwiS">
    <mxGraphModel dx="880" dy="522" grid="1" gridSize="10" guides="1" tooltips="1" connect="1" arrows="1" fold="1" page="1" pageScale="1" pageWidth="850" pageHeight="1100" math="0" shadow="0">
      <root>
        <mxCell id="0" />
        <mxCell id="1" parent="0" />
        <mxCell id="1ro929-LgPhUvLXpvoQH-3" value="" style="edgeStyle=orthogonalEdgeStyle;rounded=0;orthogonalLoop=1;jettySize=auto;html=1;" parent="1" source="1ro929-LgPhUvLXpvoQH-1" target="1ro929-LgPhUvLXpvoQH-2" edge="1">
          <mxGeometry relative="1" as="geometry" />
        </mxCell>
        <mxCell id="1ro929-LgPhUvLXpvoQH-1" value="Contador começa em 00 e o passo em 1" style="rounded=0;whiteSpace=wrap;html=1;" parent="1" vertex="1">
          <mxGeometry x="80" y="20" width="120" height="60" as="geometry" />
        </mxCell>
        <mxCell id="1ro929-LgPhUvLXpvoQH-5" value="" style="edgeStyle=orthogonalEdgeStyle;rounded=0;orthogonalLoop=1;jettySize=auto;html=1;" parent="1" source="1ro929-LgPhUvLXpvoQH-2" target="1ro929-LgPhUvLXpvoQH-4" edge="1">
          <mxGeometry relative="1" as="geometry" />
        </mxCell>
        <mxCell id="1ro929-LgPhUvLXpvoQH-2" value="Numero atual é mostrado nos display de 7 segmentos" style="rounded=0;whiteSpace=wrap;html=1;" parent="1" vertex="1">
          <mxGeometry x="80" y="160" width="120" height="60" as="geometry" />
        </mxCell>
        <mxCell id="1ro929-LgPhUvLXpvoQH-7" value="" style="edgeStyle=orthogonalEdgeStyle;rounded=0;orthogonalLoop=1;jettySize=auto;html=1;" parent="1" source="1ro929-LgPhUvLXpvoQH-4" target="1ro929-LgPhUvLXpvoQH-6" edge="1">
          <mxGeometry relative="1" as="geometry" />
        </mxCell>
        <mxCell id="1ro929-LgPhUvLXpvoQH-47" style="edgeStyle=orthogonalEdgeStyle;rounded=0;orthogonalLoop=1;jettySize=auto;html=1;entryX=0;entryY=0.5;entryDx=0;entryDy=0;" parent="1" source="1ro929-LgPhUvLXpvoQH-4" target="1ro929-LgPhUvLXpvoQH-46" edge="1">
          <mxGeometry relative="1" as="geometry">
            <Array as="points">
              <mxPoint x="350" y="90" />
            </Array>
          </mxGeometry>
        </mxCell>
        <mxCell id="1ro929-LgPhUvLXpvoQH-4" value="O numero é primo?" style="rhombus;whiteSpace=wrap;html=1;rounded=0;gradientColor=none;align=center;verticalAlign=middle;" parent="1" vertex="1">
          <mxGeometry x="300" y="147" width="90" height="86" as="geometry" />
        </mxCell>
        <mxCell id="1ro929-LgPhUvLXpvoQH-51" style="edgeStyle=orthogonalEdgeStyle;rounded=0;orthogonalLoop=1;jettySize=auto;html=1;entryX=0.5;entryY=0;entryDx=0;entryDy=0;" parent="1" target="1ro929-LgPhUvLXpvoQH-13" edge="1">
          <mxGeometry relative="1" as="geometry">
            <mxPoint x="390" y="310" as="targetPoint" />
            <mxPoint x="584" y="190" as="sourcePoint" />
            <Array as="points">
              <mxPoint x="609" y="190" />
              <mxPoint x="609" y="280" />
              <mxPoint x="348" y="280" />
              <mxPoint x="348" y="320" />
            </Array>
          </mxGeometry>
        </mxCell>
        <mxCell id="1ro929-LgPhUvLXpvoQH-6" value="Aciona de forma intercalada os leds da placa PAT " style="whiteSpace=wrap;html=1;rounded=0;gradientColor=none;" parent="1" vertex="1">
          <mxGeometry x="460" y="150" width="125" height="80" as="geometry" />
        </mxCell>
        <mxCell id="1ro929-LgPhUvLXpvoQH-75" style="edgeStyle=orthogonalEdgeStyle;rounded=0;orthogonalLoop=1;jettySize=auto;html=1;entryX=0.5;entryY=1;entryDx=0;entryDy=0;" parent="1" source="1ro929-LgPhUvLXpvoQH-13" target="1ro929-LgPhUvLXpvoQH-41" edge="1">
          <mxGeometry relative="1" as="geometry">
            <Array as="points">
              <mxPoint x="348" y="480" />
              <mxPoint x="508" y="480" />
              <mxPoint x="508" y="500" />
              <mxPoint x="680" y="500" />
            </Array>
          </mxGeometry>
        </mxCell>
        <mxCell id="1ro929-LgPhUvLXpvoQH-81" value="" style="edgeStyle=orthogonalEdgeStyle;rounded=0;orthogonalLoop=1;jettySize=auto;html=1;" parent="1" source="1ro929-LgPhUvLXpvoQH-13" target="1ro929-LgPhUvLXpvoQH-36" edge="1">
          <mxGeometry relative="1" as="geometry" />
        </mxCell>
        <mxCell id="1ro929-LgPhUvLXpvoQH-13" value="Switch 1 está pressionado?" style="rhombus;whiteSpace=wrap;html=1;strokeColor=#000000;" parent="1" vertex="1">
          <mxGeometry x="300" y="346" width="95" height="95" as="geometry" />
        </mxCell>
        <mxCell id="1ro929-LgPhUvLXpvoQH-45" style="edgeStyle=orthogonalEdgeStyle;rounded=0;orthogonalLoop=1;jettySize=auto;html=1;exitX=1;exitY=0.5;exitDx=0;exitDy=0;entryX=1;entryY=0.5;entryDx=0;entryDy=0;" parent="1" source="1ro929-LgPhUvLXpvoQH-15" target="1ro929-LgPhUvLXpvoQH-19" edge="1">
          <mxGeometry relative="1" as="geometry">
            <mxPoint x="500" y="560" as="targetPoint" />
            <Array as="points">
              <mxPoint x="770" y="364" />
              <mxPoint x="770" y="548" />
            </Array>
          </mxGeometry>
        </mxCell>
        <mxCell id="1ro929-LgPhUvLXpvoQH-15" value="Incrementa o passo em 1" style="whiteSpace=wrap;html=1;" parent="1" vertex="1">
          <mxGeometry x="630" y="333.5" width="120" height="60" as="geometry" />
        </mxCell>
        <mxCell id="1ro929-LgPhUvLXpvoQH-68" style="edgeStyle=orthogonalEdgeStyle;rounded=0;orthogonalLoop=1;jettySize=auto;html=1;exitX=0;exitY=0.5;exitDx=0;exitDy=0;entryX=1;entryY=0.5;entryDx=0;entryDy=0;" parent="1" source="1ro929-LgPhUvLXpvoQH-19" target="1ro929-LgPhUvLXpvoQH-67" edge="1">
          <mxGeometry relative="1" as="geometry" />
        </mxCell>
        <mxCell id="1ro929-LgPhUvLXpvoQH-71" style="edgeStyle=orthogonalEdgeStyle;rounded=0;orthogonalLoop=1;jettySize=auto;html=1;exitX=0.5;exitY=1;exitDx=0;exitDy=0;entryX=0.5;entryY=1;entryDx=0;entryDy=0;" parent="1" source="1ro929-LgPhUvLXpvoQH-19" target="1ro929-LgPhUvLXpvoQH-53" edge="1">
          <mxGeometry relative="1" as="geometry">
            <mxPoint x="60" y="630" as="targetPoint" />
            <Array as="points">
              <mxPoint x="448" y="730" />
              <mxPoint x="140" y="730" />
            </Array>
          </mxGeometry>
        </mxCell>
        <mxCell id="1ro929-LgPhUvLXpvoQH-19" value="Switch 2 está pressionado?" style="rhombus;whiteSpace=wrap;html=1;" parent="1" vertex="1">
          <mxGeometry x="400" y="500" width="95" height="95" as="geometry" />
        </mxCell>
        <mxCell id="1ro929-LgPhUvLXpvoQH-28" style="edgeStyle=orthogonalEdgeStyle;rounded=0;orthogonalLoop=1;jettySize=auto;html=1;exitX=0.5;exitY=0;exitDx=0;exitDy=0;" parent="1" source="1ro929-LgPhUvLXpvoQH-20" edge="1">
          <mxGeometry relative="1" as="geometry">
            <mxPoint x="140" y="460" as="targetPoint" />
          </mxGeometry>
        </mxCell>
        <mxCell id="1ro929-LgPhUvLXpvoQH-20" value="Decrementa o passo em 1" style="whiteSpace=wrap;html=1;" parent="1" vertex="1">
          <mxGeometry x="80" y="517.5" width="120" height="60" as="geometry" />
        </mxCell>
        <mxCell id="1ro929-LgPhUvLXpvoQH-32" value="Sim" style="text;html=1;strokeColor=none;fillColor=none;align=center;verticalAlign=middle;whiteSpace=wrap;rounded=0;" parent="1" vertex="1">
          <mxGeometry x="395" y="162" width="60" height="30" as="geometry" />
        </mxCell>
        <mxCell id="1ro929-LgPhUvLXpvoQH-34" value="Sim" style="text;html=1;strokeColor=none;fillColor=none;align=center;verticalAlign=middle;whiteSpace=wrap;rounded=0;" parent="1" vertex="1">
          <mxGeometry x="381" y="365.5" width="60" height="30" as="geometry" />
        </mxCell>
        <mxCell id="1ro929-LgPhUvLXpvoQH-37" style="edgeStyle=orthogonalEdgeStyle;rounded=0;orthogonalLoop=1;jettySize=auto;html=1;entryX=0;entryY=0.5;entryDx=0;entryDy=0;" parent="1" source="1ro929-LgPhUvLXpvoQH-36" target="1ro929-LgPhUvLXpvoQH-15" edge="1">
          <mxGeometry relative="1" as="geometry" />
        </mxCell>
        <mxCell id="1ro929-LgPhUvLXpvoQH-42" style="edgeStyle=orthogonalEdgeStyle;rounded=0;orthogonalLoop=1;jettySize=auto;html=1;exitX=0.5;exitY=1;exitDx=0;exitDy=0;entryX=0;entryY=0.5;entryDx=0;entryDy=0;" parent="1" source="1ro929-LgPhUvLXpvoQH-36" target="1ro929-LgPhUvLXpvoQH-41" edge="1">
          <mxGeometry relative="1" as="geometry" />
        </mxCell>
        <mxCell id="1ro929-LgPhUvLXpvoQH-36" value="Passo = 9" style="rhombus;whiteSpace=wrap;html=1;strokeColor=#000000;" parent="1" vertex="1">
          <mxGeometry x="480" y="316" width="95" height="95" as="geometry" />
        </mxCell>
        <mxCell id="1ro929-LgPhUvLXpvoQH-38" value="Sim" style="text;html=1;strokeColor=none;fillColor=none;align=center;verticalAlign=middle;whiteSpace=wrap;rounded=0;" parent="1" vertex="1">
          <mxGeometry x="1370" y="930" width="60" height="30" as="geometry" />
        </mxCell>
        <mxCell id="1ro929-LgPhUvLXpvoQH-44" style="edgeStyle=orthogonalEdgeStyle;rounded=0;orthogonalLoop=1;jettySize=auto;html=1;exitX=1;exitY=0.5;exitDx=0;exitDy=0;entryX=1;entryY=0.5;entryDx=0;entryDy=0;" parent="1" source="1ro929-LgPhUvLXpvoQH-41" target="1ro929-LgPhUvLXpvoQH-19" edge="1">
          <mxGeometry relative="1" as="geometry">
            <mxPoint x="540" y="580" as="targetPoint" />
            <Array as="points">
              <mxPoint x="770" y="450" />
              <mxPoint x="770" y="548" />
              <mxPoint x="530" y="548" />
            </Array>
          </mxGeometry>
        </mxCell>
        <mxCell id="1ro929-LgPhUvLXpvoQH-41" value="Não incrementa o passo" style="whiteSpace=wrap;html=1;" parent="1" vertex="1">
          <mxGeometry x="620" y="420" width="120" height="60" as="geometry" />
        </mxCell>
        <mxCell id="1ro929-LgPhUvLXpvoQH-79" style="edgeStyle=orthogonalEdgeStyle;rounded=0;orthogonalLoop=1;jettySize=auto;html=1;exitX=1;exitY=0.5;exitDx=0;exitDy=0;entryX=0.5;entryY=0;entryDx=0;entryDy=0;" parent="1" source="1ro929-LgPhUvLXpvoQH-46" target="1ro929-LgPhUvLXpvoQH-13" edge="1">
          <mxGeometry relative="1" as="geometry">
            <Array as="points">
              <mxPoint x="610" y="90" />
              <mxPoint x="610" y="280" />
              <mxPoint x="348" y="280" />
            </Array>
          </mxGeometry>
        </mxCell>
        <mxCell id="1ro929-LgPhUvLXpvoQH-46" value="Mantem os leds da placa PAT desacionado" style="whiteSpace=wrap;html=1;rounded=0;gradientColor=none;" parent="1" vertex="1">
          <mxGeometry x="460" y="50" width="125" height="80" as="geometry" />
        </mxCell>
        <mxCell id="1ro929-LgPhUvLXpvoQH-56" style="edgeStyle=orthogonalEdgeStyle;rounded=0;orthogonalLoop=1;jettySize=auto;html=1;exitX=0;exitY=0.5;exitDx=0;exitDy=0;" parent="1" source="1ro929-LgPhUvLXpvoQH-53" edge="1">
          <mxGeometry relative="1" as="geometry">
            <mxPoint x="90" y="410" as="targetPoint" />
            <Array as="points">
              <mxPoint x="60" y="625" />
              <mxPoint x="60" y="410" />
            </Array>
          </mxGeometry>
        </mxCell>
        <mxCell id="1ro929-LgPhUvLXpvoQH-53" value="Não decrementa o passo" style="whiteSpace=wrap;html=1;" parent="1" vertex="1">
          <mxGeometry x="80" y="595" width="120" height="60" as="geometry" />
        </mxCell>
        <mxCell id="1ro929-LgPhUvLXpvoQH-59" style="edgeStyle=orthogonalEdgeStyle;rounded=0;orthogonalLoop=1;jettySize=auto;html=1;exitX=0.5;exitY=0;exitDx=0;exitDy=0;entryX=0.5;entryY=1;entryDx=0;entryDy=0;" parent="1" source="1ro929-LgPhUvLXpvoQH-57" target="1ro929-LgPhUvLXpvoQH-58" edge="1">
          <mxGeometry relative="1" as="geometry" />
        </mxCell>
        <mxCell id="1ro929-LgPhUvLXpvoQH-62" style="edgeStyle=orthogonalEdgeStyle;rounded=0;orthogonalLoop=1;jettySize=auto;html=1;exitX=1;exitY=0.5;exitDx=0;exitDy=0;entryX=0.5;entryY=1;entryDx=0;entryDy=0;" parent="1" source="1ro929-LgPhUvLXpvoQH-57" target="1ro929-LgPhUvLXpvoQH-61" edge="1">
          <mxGeometry relative="1" as="geometry" />
        </mxCell>
        <mxCell id="1ro929-LgPhUvLXpvoQH-57" value="Número atual = 99" style="rhombus;whiteSpace=wrap;html=1;strokeColor=#000000;" parent="1" vertex="1">
          <mxGeometry x="92.5" y="363.5" width="95" height="95" as="geometry" />
        </mxCell>
        <mxCell id="1ro929-LgPhUvLXpvoQH-60" style="edgeStyle=orthogonalEdgeStyle;rounded=0;orthogonalLoop=1;jettySize=auto;html=1;exitX=0.5;exitY=0;exitDx=0;exitDy=0;entryX=0.5;entryY=1;entryDx=0;entryDy=0;" parent="1" source="1ro929-LgPhUvLXpvoQH-58" target="1ro929-LgPhUvLXpvoQH-2" edge="1">
          <mxGeometry relative="1" as="geometry" />
        </mxCell>
        <mxCell id="1ro929-LgPhUvLXpvoQH-58" value="&lt;div&gt;Próximo número = número atual + passo&lt;br&gt;&lt;/div&gt;" style="rounded=0;whiteSpace=wrap;html=1;" parent="1" vertex="1">
          <mxGeometry x="57" y="273.5" width="120" height="60" as="geometry" />
        </mxCell>
        <mxCell id="1ro929-LgPhUvLXpvoQH-63" style="edgeStyle=orthogonalEdgeStyle;rounded=0;orthogonalLoop=1;jettySize=auto;html=1;exitX=0.5;exitY=0;exitDx=0;exitDy=0;" parent="1" source="1ro929-LgPhUvLXpvoQH-61" edge="1">
          <mxGeometry relative="1" as="geometry">
            <mxPoint x="140" y="220" as="targetPoint" />
          </mxGeometry>
        </mxCell>
        <mxCell id="1ro929-LgPhUvLXpvoQH-61" value="&lt;div&gt;Próximo número = 0&lt;br&gt;&lt;/div&gt;" style="rounded=0;whiteSpace=wrap;html=1;" parent="1" vertex="1">
          <mxGeometry x="210" y="273.5" width="120" height="60" as="geometry" />
        </mxCell>
        <mxCell id="1ro929-LgPhUvLXpvoQH-64" value="Não" style="text;html=1;strokeColor=none;fillColor=none;align=center;verticalAlign=middle;whiteSpace=wrap;rounded=0;" parent="1" vertex="1">
          <mxGeometry x="394" y="63" width="60" height="30" as="geometry" />
        </mxCell>
        <mxCell id="1ro929-LgPhUvLXpvoQH-65" value="Sim" style="text;html=1;strokeColor=none;fillColor=none;align=center;verticalAlign=middle;whiteSpace=wrap;rounded=0;" parent="1" vertex="1">
          <mxGeometry x="177" y="412" width="60" height="30" as="geometry" />
        </mxCell>
        <mxCell id="1ro929-LgPhUvLXpvoQH-66" value="Sim" style="text;html=1;strokeColor=none;fillColor=none;align=center;verticalAlign=middle;whiteSpace=wrap;rounded=0;" parent="1" vertex="1">
          <mxGeometry x="352" y="519" width="60" height="30" as="geometry" />
        </mxCell>
        <mxCell id="1ro929-LgPhUvLXpvoQH-69" style="edgeStyle=orthogonalEdgeStyle;rounded=0;orthogonalLoop=1;jettySize=auto;html=1;entryX=1;entryY=0.5;entryDx=0;entryDy=0;" parent="1" source="1ro929-LgPhUvLXpvoQH-67" target="1ro929-LgPhUvLXpvoQH-20" edge="1">
          <mxGeometry relative="1" as="geometry" />
        </mxCell>
        <mxCell id="1ro929-LgPhUvLXpvoQH-70" style="edgeStyle=orthogonalEdgeStyle;rounded=0;orthogonalLoop=1;jettySize=auto;html=1;exitX=0.5;exitY=1;exitDx=0;exitDy=0;entryX=1;entryY=0.5;entryDx=0;entryDy=0;" parent="1" source="1ro929-LgPhUvLXpvoQH-67" target="1ro929-LgPhUvLXpvoQH-53" edge="1">
          <mxGeometry relative="1" as="geometry" />
        </mxCell>
        <mxCell id="1ro929-LgPhUvLXpvoQH-67" value="Passo = 1" style="rhombus;whiteSpace=wrap;html=1;strokeColor=#000000;" parent="1" vertex="1">
          <mxGeometry x="265" y="500" width="95" height="95" as="geometry" />
        </mxCell>
        <mxCell id="1ro929-LgPhUvLXpvoQH-72" value="Não" style="text;html=1;strokeColor=none;fillColor=none;align=center;verticalAlign=middle;whiteSpace=wrap;rounded=0;" parent="1" vertex="1">
          <mxGeometry x="561" y="334" width="60" height="30" as="geometry" />
        </mxCell>
        <mxCell id="1ro929-LgPhUvLXpvoQH-73" value="Não" style="text;html=1;strokeColor=none;fillColor=none;align=center;verticalAlign=middle;whiteSpace=wrap;rounded=0;" parent="1" vertex="1">
          <mxGeometry x="110" y="335.5" width="60" height="30" as="geometry" />
        </mxCell>
        <mxCell id="1ro929-LgPhUvLXpvoQH-74" value="Não" style="text;html=1;strokeColor=none;fillColor=none;align=center;verticalAlign=middle;whiteSpace=wrap;rounded=0;" parent="1" vertex="1">
          <mxGeometry x="340" y="442" width="60" height="30" as="geometry" />
        </mxCell>
        <mxCell id="1ro929-LgPhUvLXpvoQH-76" value="Não" style="text;html=1;strokeColor=none;fillColor=none;align=center;verticalAlign=middle;whiteSpace=wrap;rounded=0;" parent="1" vertex="1">
          <mxGeometry x="441" y="595" width="60" height="30" as="geometry" />
        </mxCell>
        <mxCell id="NtKc7-Qqe8FrV_vFMQuS-1" value="Sim" style="text;html=1;strokeColor=none;fillColor=none;align=center;verticalAlign=middle;whiteSpace=wrap;rounded=0;" vertex="1" parent="1">
          <mxGeometry x="255" y="597" width="60" height="30" as="geometry" />
        </mxCell>
        <mxCell id="NtKc7-Qqe8FrV_vFMQuS-3" value="Não" style="text;html=1;strokeColor=none;fillColor=none;align=center;verticalAlign=middle;whiteSpace=wrap;rounded=0;" vertex="1" parent="1">
          <mxGeometry x="220" y="517.5" width="60" height="30" as="geometry" />
        </mxCell>
      </root>
    </mxGraphModel>
  </diagram>
</mxfile>
